<svg width="932" height="238" viewBox="0 0 932 238" fill="none" xmlns="http://www.w3.org/2000/svg">
<path d="M284.091 42.9091H308.364L334 105.455H335.091L360.727 42.9091H385V136H365.909V75.4091H365.136L341.045 135.545H328.045L303.955 75.1818H303.182V136H284.091V42.9091ZM432.67 137.364C425.489 137.364 419.307 135.909 414.125 133C408.973 130.061 405.004 125.909 402.216 120.545C399.428 115.152 398.034 108.773 398.034 101.409C398.034 94.2273 399.428 87.9242 402.216 82.5C405.004 77.0758 408.928 72.8485 413.989 69.8182C419.08 66.7879 425.049 65.2727 431.898 65.2727C436.504 65.2727 440.792 66.0152 444.761 67.5C448.761 68.9545 452.246 71.1515 455.216 74.0909C458.216 77.0303 460.549 80.7273 462.216 85.1818C463.883 89.6061 464.716 94.7879 464.716 100.727V106.045H405.761V94.0455H446.489C446.489 91.2576 445.883 88.7879 444.67 86.6364C443.458 84.4848 441.777 82.803 439.625 81.5909C437.504 80.3485 435.034 79.7273 432.216 79.7273C429.277 79.7273 426.67 80.4091 424.398 81.7727C422.155 83.1061 420.398 84.9091 419.125 87.1818C417.852 89.4242 417.201 91.9242 417.17 94.6818V106.091C417.17 109.545 417.807 112.53 419.08 115.045C420.383 117.561 422.216 119.5 424.58 120.864C426.943 122.227 429.746 122.909 432.989 122.909C435.14 122.909 437.11 122.606 438.898 122C440.686 121.394 442.216 120.485 443.489 119.273C444.761 118.061 445.731 116.576 446.398 114.818L464.307 116C463.398 120.303 461.534 124.061 458.716 127.273C455.928 130.455 452.322 132.939 447.898 134.727C443.504 136.485 438.428 137.364 432.67 137.364ZM522.125 106.273V66.1818H541.489V136H522.898V123.318H522.17C520.595 127.409 517.973 130.697 514.307 133.182C510.67 135.667 506.231 136.909 500.989 136.909C496.322 136.909 492.216 135.848 488.67 133.727C485.125 131.606 482.352 128.591 480.352 124.682C478.383 120.773 477.383 116.091 477.352 110.636V66.1818H496.716V107.182C496.746 111.303 497.852 114.561 500.034 116.955C502.216 119.348 505.14 120.545 508.807 120.545C511.14 120.545 513.322 120.015 515.352 118.955C517.383 117.864 519.019 116.258 520.261 114.136C521.534 112.015 522.155 109.394 522.125 106.273ZM637.466 69.6818C637.102 66.0151 635.542 63.1667 632.784 61.1364C630.027 59.1061 626.284 58.0909 621.557 58.0909C618.345 58.0909 615.633 58.5455 613.42 59.4545C611.208 60.3333 609.511 61.5606 608.33 63.1364C607.178 64.7121 606.602 66.5 606.602 68.5C606.542 70.1667 606.89 71.6212 607.648 72.8636C608.436 74.1061 609.511 75.1818 610.875 76.0909C612.239 76.9697 613.814 77.7424 615.602 78.4091C617.39 79.0455 619.299 79.5909 621.33 80.0455L629.693 82.0455C633.754 82.9545 637.481 84.1667 640.875 85.6818C644.269 87.197 647.208 89.0606 649.693 91.2727C652.178 93.4848 654.102 96.0909 655.466 99.0909C656.86 102.091 657.572 105.53 657.602 109.409C657.572 115.106 656.117 120.045 653.239 124.227C650.39 128.379 646.269 131.606 640.875 133.909C635.511 136.182 629.042 137.318 621.466 137.318C613.951 137.318 607.405 136.167 601.83 133.864C596.284 131.561 591.951 128.152 588.83 123.636C585.739 119.091 584.117 113.47 583.966 106.773H603.011C603.223 109.894 604.117 112.5 605.693 114.591C607.299 116.652 609.436 118.212 612.102 119.273C614.799 120.303 617.845 120.818 621.239 120.818C624.572 120.818 627.466 120.333 629.92 119.364C632.405 118.394 634.33 117.045 635.693 115.318C637.057 113.591 637.739 111.606 637.739 109.364C637.739 107.273 637.117 105.515 635.875 104.091C634.663 102.667 632.875 101.455 630.511 100.455C628.178 99.4545 625.314 98.5455 621.92 97.7273L611.784 95.1818C603.936 93.2727 597.739 90.2879 593.193 86.2273C588.648 82.1667 586.39 76.697 586.42 69.8182C586.39 64.1818 587.89 59.2576 590.92 55.0455C593.981 50.8333 598.178 47.5455 603.511 45.1818C608.845 42.8182 614.905 41.6364 621.693 41.6364C628.602 41.6364 634.633 42.8182 639.784 45.1818C644.966 47.5455 648.996 50.8333 651.875 55.0455C654.754 59.2576 656.239 64.1364 656.33 69.6818H637.466ZM690.386 137.318C685.932 137.318 681.962 136.545 678.477 135C674.992 133.424 672.235 131.106 670.205 128.045C668.205 124.955 667.205 121.106 667.205 116.5C667.205 112.621 667.917 109.364 669.341 106.727C670.765 104.091 672.705 101.97 675.159 100.364C677.614 98.7576 680.402 97.5455 683.523 96.7273C686.674 95.9091 689.977 95.3333 693.432 95C697.492 94.5758 700.765 94.1818 703.25 93.8182C705.735 93.4242 707.538 92.8485 708.659 92.0909C709.78 91.3333 710.341 90.2121 710.341 88.7273V88.4545C710.341 85.5758 709.432 83.3485 707.614 81.7727C705.826 80.197 703.28 79.4091 699.977 79.4091C696.492 79.4091 693.72 80.1818 691.659 81.7273C689.598 83.2424 688.235 85.1515 687.568 87.4545L669.659 86C670.568 81.7576 672.356 78.0909 675.023 75C677.689 71.8788 681.129 69.4848 685.341 67.8182C689.583 66.1212 694.492 65.2727 700.068 65.2727C703.947 65.2727 707.659 65.7273 711.205 66.6364C714.78 67.5455 717.947 68.9545 720.705 70.8636C723.492 72.7727 725.689 75.2273 727.295 78.2273C728.902 81.197 729.705 84.7576 729.705 88.9091V136H711.341V126.318H710.795C709.674 128.5 708.174 130.424 706.295 132.091C704.417 133.727 702.159 135.015 699.523 135.955C696.886 136.864 693.841 137.318 690.386 137.318ZM695.932 123.955C698.78 123.955 701.295 123.394 703.477 122.273C705.659 121.121 707.371 119.576 708.614 117.636C709.856 115.697 710.477 113.5 710.477 111.045V103.636C709.871 104.03 709.038 104.394 707.977 104.727C706.947 105.03 705.78 105.318 704.477 105.591C703.174 105.833 701.871 106.061 700.568 106.273C699.265 106.455 698.083 106.621 697.023 106.773C694.75 107.106 692.765 107.636 691.068 108.364C689.371 109.091 688.053 110.076 687.114 111.318C686.174 112.53 685.705 114.045 685.705 115.864C685.705 118.5 686.659 120.515 688.568 121.909C690.508 123.273 692.962 123.955 695.932 123.955ZM764.091 42.9091V136H744.727V42.9091H764.091ZM805.33 137.136C800.027 137.136 795.223 135.773 790.92 133.045C786.648 130.288 783.254 126.242 780.739 120.909C778.254 115.545 777.011 108.97 777.011 101.182C777.011 93.1818 778.299 86.5303 780.875 81.2273C783.451 75.8939 786.875 71.9091 791.148 69.2727C795.451 66.6061 800.163 65.2727 805.284 65.2727C809.193 65.2727 812.451 65.9394 815.057 67.2727C817.693 68.5758 819.814 70.2121 821.42 72.1818C823.057 74.1212 824.299 76.0303 825.148 77.9091H825.739V42.9091H845.057V136H825.966V124.818H825.148C824.239 126.758 822.951 128.682 821.284 130.591C819.648 132.47 817.511 134.03 814.875 135.273C812.269 136.515 809.087 137.136 805.33 137.136ZM811.466 121.727C814.587 121.727 817.223 120.879 819.375 119.182C821.557 117.455 823.223 115.045 824.375 111.955C825.557 108.864 826.148 105.242 826.148 101.091C826.148 96.9394 825.572 93.3333 824.42 90.2727C823.269 87.2121 821.602 84.8485 819.42 83.1818C817.239 81.5151 814.587 80.6818 811.466 80.6818C808.284 80.6818 805.602 81.5455 803.42 83.2727C801.239 85 799.587 87.3939 798.466 90.4545C797.345 93.5151 796.784 97.0606 796.784 101.091C796.784 105.152 797.345 108.742 798.466 111.864C799.617 114.955 801.269 117.379 803.42 119.136C805.602 120.864 808.284 121.727 811.466 121.727ZM892.523 137.364C885.462 137.364 879.356 135.864 874.205 132.864C869.083 129.833 865.129 125.621 862.341 120.227C859.553 114.803 858.159 108.515 858.159 101.364C858.159 94.1515 859.553 87.8485 862.341 82.4545C865.129 77.0303 869.083 72.8182 874.205 69.8182C879.356 66.7879 885.462 65.2727 892.523 65.2727C899.583 65.2727 905.674 66.7879 910.795 69.8182C915.947 72.8182 919.917 77.0303 922.705 82.4545C925.492 87.8485 926.886 94.1515 926.886 101.364C926.886 108.515 925.492 114.803 922.705 120.227C919.917 125.621 915.947 129.833 910.795 132.864C905.674 135.864 899.583 137.364 892.523 137.364ZM892.614 122.364C895.826 122.364 898.508 121.455 900.659 119.636C902.811 117.788 904.432 115.273 905.523 112.091C906.644 108.909 907.205 105.288 907.205 101.227C907.205 97.1667 906.644 93.5455 905.523 90.3636C904.432 87.1818 902.811 84.6667 900.659 82.8182C898.508 80.9697 895.826 80.0455 892.614 80.0455C889.371 80.0455 886.644 80.9697 884.432 82.8182C882.25 84.6667 880.598 87.1818 879.477 90.3636C878.386 93.5455 877.841 97.1667 877.841 101.227C877.841 105.288 878.386 108.909 879.477 112.091C880.598 115.273 882.25 117.788 884.432 119.636C886.644 121.455 889.371 122.364 892.614 122.364Z" fill="#07080B"/>
<path d="M282.636 198V151.455H310.545V156.455H288.273V172.182H308.455V177.182H288.273V198H282.636ZM319.472 198V163.091H324.835V198H319.472ZM322.199 157.273C321.153 157.273 320.252 156.917 319.494 156.205C318.752 155.492 318.381 154.636 318.381 153.636C318.381 152.636 318.752 151.78 319.494 151.068C320.252 150.356 321.153 150 322.199 150C323.244 150 324.138 150.356 324.881 151.068C325.638 151.78 326.017 152.636 326.017 153.636C326.017 154.636 325.638 155.492 324.881 156.205C324.138 156.917 323.244 157.273 322.199 157.273ZM340.023 177V198H334.659V163.091H339.841V168.545H340.295C341.114 166.773 342.356 165.348 344.023 164.273C345.689 163.182 347.841 162.636 350.477 162.636C352.841 162.636 354.909 163.121 356.682 164.091C358.455 165.045 359.833 166.5 360.818 168.455C361.803 170.394 362.295 172.848 362.295 175.818V198H356.932V176.182C356.932 173.439 356.22 171.303 354.795 169.773C353.371 168.227 351.417 167.455 348.932 167.455C347.22 167.455 345.689 167.826 344.341 168.568C343.008 169.311 341.955 170.394 341.182 171.818C340.409 173.242 340.023 174.97 340.023 177ZM382.369 198.818C380.157 198.818 378.15 198.402 376.347 197.568C374.544 196.72 373.112 195.5 372.051 193.909C370.991 192.303 370.46 190.364 370.46 188.091C370.46 186.091 370.854 184.47 371.642 183.227C372.43 181.97 373.483 180.985 374.801 180.273C376.119 179.561 377.574 179.03 379.165 178.682C380.771 178.318 382.384 178.03 384.006 177.818C386.127 177.545 387.847 177.341 389.165 177.205C390.498 177.053 391.468 176.803 392.074 176.455C392.695 176.106 393.006 175.5 393.006 174.636V174.455C393.006 172.212 392.392 170.47 391.165 169.227C389.953 167.985 388.112 167.364 385.642 167.364C383.081 167.364 381.074 167.924 379.619 169.045C378.165 170.167 377.142 171.364 376.551 172.636L371.46 170.818C372.369 168.697 373.581 167.045 375.097 165.864C376.627 164.667 378.294 163.833 380.097 163.364C381.915 162.879 383.703 162.636 385.46 162.636C386.581 162.636 387.869 162.773 389.324 163.045C390.794 163.303 392.21 163.841 393.574 164.659C394.953 165.477 396.097 166.712 397.006 168.364C397.915 170.015 398.369 172.227 398.369 175V198H393.006V193.273H392.733C392.369 194.03 391.763 194.841 390.915 195.705C390.066 196.568 388.938 197.303 387.528 197.909C386.119 198.515 384.4 198.818 382.369 198.818ZM383.188 194C385.309 194 387.097 193.583 388.551 192.75C390.021 191.917 391.127 190.841 391.869 189.523C392.627 188.205 393.006 186.818 393.006 185.364V180.455C392.778 180.727 392.278 180.977 391.506 181.205C390.748 181.417 389.869 181.606 388.869 181.773C387.884 181.924 386.922 182.061 385.983 182.182C385.059 182.288 384.309 182.379 383.733 182.455C382.339 182.636 381.036 182.932 379.824 183.341C378.627 183.735 377.657 184.333 376.915 185.136C376.188 185.924 375.824 187 375.824 188.364C375.824 190.227 376.513 191.636 377.892 192.591C379.286 193.53 381.051 194 383.188 194ZM413.523 177V198H408.159V163.091H413.341V168.545H413.795C414.614 166.773 415.856 165.348 417.523 164.273C419.189 163.182 421.341 162.636 423.977 162.636C426.341 162.636 428.409 163.121 430.182 164.091C431.955 165.045 433.333 166.5 434.318 168.455C435.303 170.394 435.795 172.848 435.795 175.818V198H430.432V176.182C430.432 173.439 429.72 171.303 428.295 169.773C426.871 168.227 424.917 167.455 422.432 167.455C420.72 167.455 419.189 167.826 417.841 168.568C416.508 169.311 415.455 170.394 414.682 171.818C413.909 173.242 413.523 174.97 413.523 177ZM459.778 198.727C456.506 198.727 453.688 197.955 451.324 196.409C448.96 194.864 447.142 192.735 445.869 190.023C444.597 187.311 443.96 184.212 443.96 180.727C443.96 177.182 444.612 174.053 445.915 171.341C447.233 168.614 449.066 166.485 451.415 164.955C453.778 163.409 456.536 162.636 459.688 162.636C462.142 162.636 464.354 163.091 466.324 164C468.294 164.909 469.907 166.182 471.165 167.818C472.422 169.455 473.203 171.364 473.506 173.545H468.142C467.733 171.955 466.824 170.545 465.415 169.318C464.021 168.076 462.142 167.455 459.778 167.455C457.688 167.455 455.854 168 454.278 169.091C452.718 170.167 451.498 171.689 450.619 173.659C449.756 175.614 449.324 177.909 449.324 180.545C449.324 183.242 449.748 185.591 450.597 187.591C451.46 189.591 452.672 191.144 454.233 192.25C455.809 193.356 457.657 193.909 459.778 193.909C461.172 193.909 462.438 193.667 463.574 193.182C464.71 192.697 465.672 192 466.46 191.091C467.248 190.182 467.809 189.091 468.142 187.818H473.506C473.203 189.879 472.453 191.735 471.256 193.386C470.074 195.023 468.506 196.326 466.551 197.295C464.612 198.25 462.354 198.727 459.778 198.727ZM457.233 197.818H461.688L461.324 199.636C462.506 199.818 463.589 200.311 464.574 201.114C465.559 201.932 466.051 203.227 466.051 205C466.051 206.955 465.241 208.545 463.619 209.773C462.013 211.015 459.642 211.636 456.506 211.636L456.324 208.091C457.733 208.091 458.9 207.864 459.824 207.409C460.763 206.97 461.233 206.227 461.233 205.182C461.233 204.136 460.847 203.424 460.074 203.045C459.301 202.667 458.051 202.409 456.324 202.273L457.233 197.818ZM491.619 198.818C489.407 198.818 487.4 198.402 485.597 197.568C483.794 196.72 482.362 195.5 481.301 193.909C480.241 192.303 479.71 190.364 479.71 188.091C479.71 186.091 480.104 184.47 480.892 183.227C481.68 181.97 482.733 180.985 484.051 180.273C485.369 179.561 486.824 179.03 488.415 178.682C490.021 178.318 491.634 178.03 493.256 177.818C495.377 177.545 497.097 177.341 498.415 177.205C499.748 177.053 500.718 176.803 501.324 176.455C501.945 176.106 502.256 175.5 502.256 174.636V174.455C502.256 172.212 501.642 170.47 500.415 169.227C499.203 167.985 497.362 167.364 494.892 167.364C492.331 167.364 490.324 167.924 488.869 169.045C487.415 170.167 486.392 171.364 485.801 172.636L480.71 170.818C481.619 168.697 482.831 167.045 484.347 165.864C485.877 164.667 487.544 163.833 489.347 163.364C491.165 162.879 492.953 162.636 494.71 162.636C495.831 162.636 497.119 162.773 498.574 163.045C500.044 163.303 501.46 163.841 502.824 164.659C504.203 165.477 505.347 166.712 506.256 168.364C507.165 170.015 507.619 172.227 507.619 175V198H502.256V193.273H501.983C501.619 194.03 501.013 194.841 500.165 195.705C499.316 196.568 498.188 197.303 496.778 197.909C495.369 198.515 493.65 198.818 491.619 198.818ZM492.438 194C494.559 194 496.347 193.583 497.801 192.75C499.271 191.917 500.377 190.841 501.119 189.523C501.877 188.205 502.256 186.818 502.256 185.364V180.455C502.028 180.727 501.528 180.977 500.756 181.205C499.998 181.417 499.119 181.606 498.119 181.773C497.134 181.924 496.172 182.061 495.233 182.182C494.309 182.288 493.559 182.379 492.983 182.455C491.589 182.636 490.286 182.932 489.074 183.341C487.877 183.735 486.907 184.333 486.165 185.136C485.438 185.924 485.074 187 485.074 188.364C485.074 190.227 485.763 191.636 487.142 192.591C488.536 193.53 490.301 194 492.438 194ZM542.136 170.909L537.318 172.273C537.015 171.47 536.568 170.689 535.977 169.932C535.402 169.159 534.614 168.523 533.614 168.023C532.614 167.523 531.333 167.273 529.773 167.273C527.636 167.273 525.856 167.765 524.432 168.75C523.023 169.72 522.318 170.955 522.318 172.455C522.318 173.788 522.803 174.841 523.773 175.614C524.742 176.386 526.258 177.03 528.318 177.545L533.5 178.818C536.621 179.576 538.947 180.735 540.477 182.295C542.008 183.841 542.773 185.833 542.773 188.273C542.773 190.273 542.197 192.061 541.045 193.636C539.909 195.212 538.318 196.455 536.273 197.364C534.227 198.273 531.848 198.727 529.136 198.727C525.576 198.727 522.629 197.955 520.295 196.409C517.962 194.864 516.485 192.606 515.864 189.636L520.955 188.364C521.439 190.242 522.356 191.652 523.705 192.591C525.068 193.53 526.848 194 529.045 194C531.545 194 533.53 193.47 535 192.409C536.485 191.333 537.227 190.045 537.227 188.545C537.227 187.333 536.803 186.318 535.955 185.5C535.106 184.667 533.803 184.045 532.045 183.636L526.227 182.273C523.03 181.515 520.682 180.341 519.182 178.75C517.697 177.144 516.955 175.136 516.955 172.727C516.955 170.758 517.508 169.015 518.614 167.5C519.735 165.985 521.258 164.795 523.182 163.932C525.121 163.068 527.318 162.636 529.773 162.636C533.227 162.636 535.939 163.394 537.909 164.909C539.894 166.424 541.303 168.424 542.136 170.909ZM583.028 198.727C579.756 198.727 576.938 197.955 574.574 196.409C572.21 194.864 570.392 192.735 569.119 190.023C567.847 187.311 567.21 184.212 567.21 180.727C567.21 177.182 567.862 174.053 569.165 171.341C570.483 168.614 572.316 166.485 574.665 164.955C577.028 163.409 579.786 162.636 582.938 162.636C585.392 162.636 587.604 163.091 589.574 164C591.544 164.909 593.157 166.182 594.415 167.818C595.672 169.455 596.453 171.364 596.756 173.545H591.392C590.983 171.955 590.074 170.545 588.665 169.318C587.271 168.076 585.392 167.455 583.028 167.455C580.938 167.455 579.104 168 577.528 169.091C575.968 170.167 574.748 171.689 573.869 173.659C573.006 175.614 572.574 177.909 572.574 180.545C572.574 183.242 572.998 185.591 573.847 187.591C574.71 189.591 575.922 191.144 577.483 192.25C579.059 193.356 580.907 193.909 583.028 193.909C584.422 193.909 585.688 193.667 586.824 193.182C587.96 192.697 588.922 192 589.71 191.091C590.498 190.182 591.059 189.091 591.392 187.818H596.756C596.453 189.879 595.703 191.735 594.506 193.386C593.324 195.023 591.756 196.326 589.801 197.295C587.862 198.25 585.604 198.727 583.028 198.727ZM618.778 198.727C615.627 198.727 612.862 197.977 610.483 196.477C608.119 194.977 606.271 192.879 604.938 190.182C603.619 187.485 602.96 184.333 602.96 180.727C602.96 177.091 603.619 173.917 604.938 171.205C606.271 168.492 608.119 166.386 610.483 164.886C612.862 163.386 615.627 162.636 618.778 162.636C621.93 162.636 624.688 163.386 627.051 164.886C629.43 166.386 631.278 168.492 632.597 171.205C633.93 173.917 634.597 177.091 634.597 180.727C634.597 184.333 633.93 187.485 632.597 190.182C631.278 192.879 629.43 194.977 627.051 196.477C624.688 197.977 621.93 198.727 618.778 198.727ZM618.778 193.909C621.172 193.909 623.142 193.295 624.688 192.068C626.233 190.841 627.377 189.227 628.119 187.227C628.862 185.227 629.233 183.061 629.233 180.727C629.233 178.394 628.862 176.22 628.119 174.205C627.377 172.189 626.233 170.561 624.688 169.318C623.142 168.076 621.172 167.455 618.778 167.455C616.384 167.455 614.415 168.076 612.869 169.318C611.324 170.561 610.18 172.189 609.438 174.205C608.695 176.22 608.324 178.394 608.324 180.727C608.324 183.061 608.695 185.227 609.438 187.227C610.18 189.227 611.324 190.841 612.869 192.068C614.415 193.295 616.384 193.909 618.778 193.909ZM642.784 198V163.091H647.966V168.545H648.42C649.148 166.682 650.322 165.235 651.943 164.205C653.564 163.159 655.511 162.636 657.784 162.636C660.087 162.636 662.004 163.159 663.534 164.205C665.08 165.235 666.284 166.682 667.148 168.545H667.511C668.405 166.742 669.746 165.311 671.534 164.25C673.322 163.174 675.466 162.636 677.966 162.636C681.087 162.636 683.64 163.614 685.625 165.568C687.61 167.508 688.602 170.53 688.602 174.636V198H683.239V174.636C683.239 172.061 682.534 170.22 681.125 169.114C679.716 168.008 678.057 167.455 676.148 167.455C673.693 167.455 671.792 168.197 670.443 169.682C669.095 171.152 668.42 173.015 668.42 175.273V198H662.966V174.091C662.966 172.106 662.322 170.508 661.034 169.295C659.746 168.068 658.087 167.455 656.057 167.455C654.663 167.455 653.36 167.826 652.148 168.568C650.951 169.311 649.981 170.341 649.239 171.659C648.511 172.962 648.148 174.47 648.148 176.182V198H642.784ZM730.591 198.727C727.318 198.727 724.5 197.955 722.136 196.409C719.773 194.864 717.955 192.735 716.682 190.023C715.409 187.311 714.773 184.212 714.773 180.727C714.773 177.182 715.424 174.053 716.727 171.341C718.045 168.614 719.879 166.485 722.227 164.955C724.591 163.409 727.348 162.636 730.5 162.636C732.955 162.636 735.167 163.091 737.136 164C739.106 164.909 740.72 166.182 741.977 167.818C743.235 169.455 744.015 171.364 744.318 173.545H738.955C738.545 171.955 737.636 170.545 736.227 169.318C734.833 168.076 732.955 167.455 730.591 167.455C728.5 167.455 726.667 168 725.091 169.091C723.53 170.167 722.311 171.689 721.432 173.659C720.568 175.614 720.136 177.909 720.136 180.545C720.136 183.242 720.561 185.591 721.409 187.591C722.273 189.591 723.485 191.144 725.045 192.25C726.621 193.356 728.47 193.909 730.591 193.909C731.985 193.909 733.25 193.667 734.386 193.182C735.523 192.697 736.485 192 737.273 191.091C738.061 190.182 738.621 189.091 738.955 187.818H744.318C744.015 189.879 743.265 191.735 742.068 193.386C740.886 195.023 739.318 196.326 737.364 197.295C735.424 198.25 733.167 198.727 730.591 198.727ZM757.523 151.455V198H752.159V151.455H757.523ZM777.619 198.818C775.407 198.818 773.4 198.402 771.597 197.568C769.794 196.72 768.362 195.5 767.301 193.909C766.241 192.303 765.71 190.364 765.71 188.091C765.71 186.091 766.104 184.47 766.892 183.227C767.68 181.97 768.733 180.985 770.051 180.273C771.369 179.561 772.824 179.03 774.415 178.682C776.021 178.318 777.634 178.03 779.256 177.818C781.377 177.545 783.097 177.341 784.415 177.205C785.748 177.053 786.718 176.803 787.324 176.455C787.945 176.106 788.256 175.5 788.256 174.636V174.455C788.256 172.212 787.642 170.47 786.415 169.227C785.203 167.985 783.362 167.364 780.892 167.364C778.331 167.364 776.324 167.924 774.869 169.045C773.415 170.167 772.392 171.364 771.801 172.636L766.71 170.818C767.619 168.697 768.831 167.045 770.347 165.864C771.877 164.667 773.544 163.833 775.347 163.364C777.165 162.879 778.953 162.636 780.71 162.636C781.831 162.636 783.119 162.773 784.574 163.045C786.044 163.303 787.46 163.841 788.824 164.659C790.203 165.477 791.347 166.712 792.256 168.364C793.165 170.015 793.619 172.227 793.619 175V198H788.256V193.273H787.983C787.619 194.03 787.013 194.841 786.165 195.705C785.316 196.568 784.188 197.303 782.778 197.909C781.369 198.515 779.65 198.818 777.619 198.818ZM778.438 194C780.559 194 782.347 193.583 783.801 192.75C785.271 191.917 786.377 190.841 787.119 189.523C787.877 188.205 788.256 186.818 788.256 185.364V180.455C788.028 180.727 787.528 180.977 786.756 181.205C785.998 181.417 785.119 181.606 784.119 181.773C783.134 181.924 782.172 182.061 781.233 182.182C780.309 182.288 779.559 182.379 778.983 182.455C777.589 182.636 776.286 182.932 775.074 183.341C773.877 183.735 772.907 184.333 772.165 185.136C771.438 185.924 771.074 187 771.074 188.364C771.074 190.227 771.763 191.636 773.142 192.591C774.536 193.53 776.301 194 778.438 194ZM803.409 198V163.091H808.591V168.364H808.955C809.591 166.636 810.742 165.235 812.409 164.159C814.076 163.083 815.955 162.545 818.045 162.545C818.439 162.545 818.932 162.553 819.523 162.568C820.114 162.583 820.561 162.606 820.864 162.636V168.091C820.682 168.045 820.265 167.977 819.614 167.886C818.977 167.78 818.303 167.727 817.591 167.727C815.894 167.727 814.379 168.083 813.045 168.795C811.727 169.492 810.682 170.462 809.909 171.705C809.152 172.932 808.773 174.333 808.773 175.909V198H803.409ZM840.795 198.727C837.432 198.727 834.53 197.985 832.091 196.5C829.667 195 827.795 192.909 826.477 190.227C825.174 187.53 824.523 184.394 824.523 180.818C824.523 177.242 825.174 174.091 826.477 171.364C827.795 168.621 829.629 166.485 831.977 164.955C834.341 163.409 837.098 162.636 840.25 162.636C842.068 162.636 843.864 162.939 845.636 163.545C847.409 164.152 849.023 165.136 850.477 166.5C851.932 167.848 853.091 169.636 853.955 171.864C854.818 174.091 855.25 176.833 855.25 180.091V182.364H828.341V177.727H849.795C849.795 175.758 849.402 174 848.614 172.455C847.841 170.909 846.735 169.689 845.295 168.795C843.871 167.902 842.189 167.455 840.25 167.455C838.114 167.455 836.265 167.985 834.705 169.045C833.159 170.091 831.97 171.455 831.136 173.136C830.303 174.818 829.886 176.621 829.886 178.545V181.636C829.886 184.273 830.341 186.508 831.25 188.341C832.174 190.159 833.455 191.545 835.091 192.5C836.727 193.439 838.629 193.909 840.795 193.909C842.205 193.909 843.477 193.712 844.614 193.318C845.765 192.909 846.758 192.303 847.591 191.5C848.424 190.682 849.068 189.667 849.523 188.455L854.705 189.909C854.159 191.667 853.242 193.212 851.955 194.545C850.667 195.864 849.076 196.894 847.182 197.636C845.288 198.364 843.159 198.727 840.795 198.727ZM862.409 198V193.909L882.227 168.455V168.091H863.045V163.091H889.136V167.364L869.864 192.636V193H889.773V198H862.409ZM908.307 198.818C906.095 198.818 904.087 198.402 902.284 197.568C900.481 196.72 899.049 195.5 897.989 193.909C896.928 192.303 896.398 190.364 896.398 188.091C896.398 186.091 896.792 184.47 897.58 183.227C898.367 181.97 899.42 180.985 900.739 180.273C902.057 179.561 903.511 179.03 905.102 178.682C906.708 178.318 908.322 178.03 909.943 177.818C912.064 177.545 913.784 177.341 915.102 177.205C916.436 177.053 917.405 176.803 918.011 176.455C918.633 176.106 918.943 175.5 918.943 174.636V174.455C918.943 172.212 918.33 170.47 917.102 169.227C915.89 167.985 914.049 167.364 911.58 167.364C909.019 167.364 907.011 167.924 905.557 169.045C904.102 170.167 903.08 171.364 902.489 172.636L897.398 170.818C898.307 168.697 899.519 167.045 901.034 165.864C902.564 164.667 904.231 163.833 906.034 163.364C907.852 162.879 909.64 162.636 911.398 162.636C912.519 162.636 913.807 162.773 915.261 163.045C916.731 163.303 918.148 163.841 919.511 164.659C920.89 165.477 922.034 166.712 922.943 168.364C923.852 170.015 924.307 172.227 924.307 175V198H918.943V193.273H918.67C918.307 194.03 917.701 194.841 916.852 195.705C916.004 196.568 914.875 197.303 913.466 197.909C912.057 198.515 910.337 198.818 908.307 198.818ZM909.125 194C911.246 194 913.034 193.583 914.489 192.75C915.958 191.917 917.064 190.841 917.807 189.523C918.564 188.205 918.943 186.818 918.943 185.364V180.455C918.716 180.727 918.216 180.977 917.443 181.205C916.686 181.417 915.807 181.606 914.807 181.773C913.822 181.924 912.86 182.061 911.92 182.182C910.996 182.288 910.246 182.379 909.67 182.455C908.277 182.636 906.973 182.932 905.761 183.341C904.564 183.735 903.595 184.333 902.852 185.136C902.125 185.924 901.761 187 901.761 188.364C901.761 190.227 902.451 191.636 903.83 192.591C905.223 193.53 906.989 194 909.125 194Z" fill="#07080B"/>
<rect width="238" height="238" rx="32" fill="#1E3A8A"/>
<path d="M160.414 52.7649H160.419L161.393 52.7716C162.548 52.7796 163.68 52.7713 164.796 52.763C170.894 52.7179 176.477 52.6767 182.422 55.3245C189.667 58.5508 195.542 64.2447 198.456 71.5709C199.505 74.1606 200.192 76.8796 200.497 79.6526C200.815 82.6247 200.734 86.5665 200.661 90.14C200.632 91.5005 200.606 92.8076 200.602 93.9873C200.608 97.3426 200.587 100.698 200.539 104.053C200.535 104.597 200.54 105.146 200.544 105.697V105.701V105.708C200.555 107.139 200.565 108.583 200.449 109.99C200.359 111.092 200.161 112.229 199.695 113.24C198.748 115.296 196.911 116.833 194.78 117.599C192.687 118.351 190.391 118.15 188.401 117.181C186.297 116.158 184.871 114.186 184.278 111.973C183.791 110.156 183.849 108.086 183.904 106.117C183.921 105.525 183.937 104.942 183.939 104.378C183.941 103.343 183.96 102.043 183.982 100.576V100.573C184.087 93.4544 184.25 82.388 182.83 78.3548C181.666 75.0496 179.332 72.2363 176.109 70.7257C172.615 69.0873 168.586 69.1487 164.72 69.2074H164.72H164.716C163.925 69.2196 163.141 69.2314 162.37 69.2288C161.743 69.2266 160.77 69.2074 159.613 69.1844H159.606H159.599C155.486 69.1027 149.061 68.9749 147.584 69.4071C145.438 70.0351 141.249 73.2339 139.15 74.5525L108.641 93.8592C105.714 95.6854 102.754 97.7099 99.7812 99.433C94.4475 102.524 89.2512 99.1088 84.5637 96.0275C83.8006 95.526 83.051 95.0331 82.3163 94.5789L64.2592 83.3015C61.1319 81.3514 57.1626 78.7192 53.9765 77.0687C53.8569 87.718 53.8236 98.368 53.8773 109.018L53.865 157.648L53.8708 171.462C53.8715 171.902 53.8792 172.472 53.8879 173.102C53.9138 174.995 53.9471 177.438 53.8197 178.583C53.663 180.066 53.0867 181.474 52.157 182.648C50.7671 184.433 48.6994 185.58 46.4336 185.822C42.4678 186.272 37.6164 183.537 37.116 179.379C36.8413 177.098 36.8727 174.335 36.9017 171.769V171.768V171.767L36.9024 171.713L36.903 171.659L36.9037 171.606C36.9127 170.77 36.9218 169.955 36.9182 169.188L36.9024 154.22L36.9043 116.319L36.9573 80.4384L36.9341 68.865C36.9315 68.2744 36.914 67.6476 36.8959 66.9995C36.8077 63.825 36.7052 60.1377 38.2561 57.6752C39.4789 55.7471 41.4354 54.387 43.6848 53.9008C45.4642 53.4868 47.3302 53.6372 49.0181 54.3311C50.3046 54.8533 52.2498 56.1758 53.5285 56.952L61.4894 61.7752L95.3739 82.7396C98.7123 80.8722 103.166 77.8731 106.484 75.7785C113.596 71.2384 120.734 66.7395 127.899 62.2818C135.944 57.2261 140.079 53.2086 149.992 52.7911C153.359 52.7147 156.988 52.7406 160.403 52.7649H160.408H160.414Z" fill="white"/>
<path d="M119.471 99.8697C119.826 99.833 120.182 99.8084 120.539 99.7959C123.621 99.7158 127.322 102.081 130.345 104.014C131.086 104.487 131.786 104.934 132.426 105.314L149.03 115.146L175.261 130.811C180.416 133.899 189.111 138.56 193.142 142.504C197.836 147.075 200.463 153.326 200.426 159.839C200.457 166.793 197.847 172.816 192.884 177.748C188.865 181.734 183.73 184.439 178.141 185.513C174.881 186.158 170.8 186.125 167.177 186.096H167.174H167.168C166.466 186.09 165.781 186.084 165.123 186.084L148.708 186.073L85.1817 186.059C80.8821 186.077 77.4565 184.793 76.0591 180.401C75.4014 178.282 75.6202 175.991 76.6684 174.031C79.0817 169.621 83.3626 169.692 87.6186 169.763C88.0892 169.771 88.5595 169.779 89.0269 169.781L99.3623 169.814L149.025 169.8L163.294 169.798C164.226 169.798 165.174 169.819 166.127 169.84C172.575 169.984 179.265 170.133 182.814 163.687C183.867 161.773 184.304 157.366 182.63 155.867C178.832 152.466 173.541 149.688 169.104 147.031C160.265 141.797 151.453 136.517 142.671 131.191C134.611 126.383 126.539 121.584 118.475 116.782C117.453 116.173 116.384 115.56 115.456 114.818C114.104 113.739 113.125 112.273 112.652 110.621C111.116 105.401 114.413 101.202 119.471 99.8697Z" fill="white"/>
</svg>
