<svg width="851" height="851" viewBox="0 0 851 851" fill="none" xmlns="http://www.w3.org/2000/svg">
<path d="M0 64C0 28.6538 28.6538 0 64 0H787C822.346 0 851 28.6538 851 64V787C851 822.346 822.346 851 787 851H64C28.6538 851 0 822.346 0 787V64Z" fill="#6EA8FF"/>
<path d="M553.624 218.148H553.641L556.652 218.169C560.226 218.194 563.73 218.168 567.181 218.142C586.046 218.001 603.32 217.872 621.713 226.161C644.127 236.261 662.3 254.086 671.317 277.021C674.563 285.128 676.687 293.64 677.63 302.321C678.614 311.625 678.364 323.965 678.137 335.152C678.05 339.411 677.967 343.503 677.957 347.196C677.974 357.7 677.908 368.204 677.76 378.707C677.75 380.411 677.763 382.129 677.776 383.854V383.866V383.888C677.809 388.368 677.842 392.888 677.484 397.293C677.204 400.742 676.592 404.302 675.151 407.468C672.22 413.904 666.536 418.716 659.945 421.113C653.468 423.469 646.367 422.838 640.208 419.805C633.701 416.601 629.288 410.429 627.453 403.5C625.946 397.812 626.126 391.332 626.298 385.168C626.349 383.315 626.4 381.49 626.404 379.724C626.411 376.483 626.471 372.415 626.538 367.822V367.812C626.863 345.528 627.368 310.884 622.973 298.258C619.372 287.911 612.151 279.104 602.182 274.375C591.372 269.246 578.908 269.438 566.947 269.622H566.945H566.935C564.488 269.66 562.062 269.697 559.675 269.689C557.736 269.682 554.726 269.622 551.146 269.55H551.125H551.104C538.378 269.294 518.5 268.894 513.932 270.247C507.291 272.213 494.334 282.227 487.84 286.355L393.452 346.795C384.398 352.512 375.24 358.85 366.042 364.244C349.541 373.921 333.465 363.229 318.963 353.583C316.602 352.013 314.283 350.47 312.01 349.048L256.146 313.744C246.471 307.639 234.191 299.399 224.334 294.232C223.964 327.57 223.861 360.91 224.027 394.25L223.989 546.489L224.007 589.734C224.009 591.112 224.033 592.894 224.06 594.867C224.14 600.793 224.243 608.441 223.849 612.026C223.364 616.667 221.581 621.077 218.705 624.752C214.405 630.34 208.008 633.93 200.998 634.688C188.729 636.096 173.72 627.533 172.172 614.519C171.322 607.377 171.419 598.727 171.509 590.694V590.692V590.687L171.511 590.519L171.513 590.349L171.515 590.185C171.543 587.566 171.571 585.016 171.56 582.613L171.511 535.758L171.517 417.107L171.681 304.781L171.609 268.55C171.601 266.701 171.547 264.739 171.491 262.71C171.218 252.772 170.901 241.229 175.699 233.52C179.482 227.484 185.535 223.226 192.494 221.704C197.999 220.408 203.772 220.879 208.994 223.051C212.974 224.686 218.992 228.826 222.948 231.256L247.577 246.355L352.407 311.985C362.735 306.139 376.515 296.75 386.78 290.193C408.782 275.98 430.866 261.896 453.032 247.941C477.922 232.114 490.714 219.537 521.381 218.23C531.798 217.991 543.026 218.072 553.589 218.148H553.607H553.624Z" fill="white"/>
<path d="M426.958 365.612C428.056 365.497 429.158 365.42 430.262 365.381C439.795 365.13 451.245 372.535 460.599 378.585C462.891 380.067 465.056 381.467 467.037 382.654L518.406 413.434L599.557 462.476C615.506 472.141 642.406 486.732 654.878 499.079C669.399 513.391 677.525 532.96 677.411 553.348C677.506 575.117 669.433 593.974 654.079 609.411C641.645 621.89 625.758 630.358 608.466 633.722C598.381 635.739 585.756 635.636 574.546 635.545H574.537H574.52C572.349 635.527 570.23 635.51 568.194 635.509L517.409 635.474L320.875 635.429C307.573 635.487 296.975 631.468 292.652 617.718C290.617 611.083 291.294 603.912 294.537 597.776C302.003 583.97 315.247 584.193 328.414 584.415C329.87 584.44 331.325 584.464 332.771 584.47L364.746 584.576L518.39 584.531L562.535 584.525C565.418 584.524 568.351 584.59 571.3 584.657H571.303C591.249 585.106 611.944 585.572 622.923 565.393C626.182 559.401 627.533 545.605 622.355 540.913C610.606 530.266 594.237 521.569 580.508 513.251C553.162 496.867 525.902 480.338 498.732 463.664C473.796 448.614 448.823 433.588 423.877 418.555C420.714 416.649 417.407 414.732 414.536 412.407C410.354 409.031 407.323 404.441 405.861 399.269C401.108 382.927 411.309 369.783 426.958 365.612Z" fill="white"/>
</svg>
