<svg width="851" height="851" viewBox="0 0 851 851" fill="none" xmlns="http://www.w3.org/2000/svg">
<rect width="851" height="851" rx="64" fill="#1E3A8A"/>
<path d="M555.147 218.148H555.165L558.211 218.169C561.828 218.194 565.374 218.168 568.866 218.142C587.955 218.001 605.434 217.872 624.046 226.161C646.727 236.261 665.116 254.086 674.24 277.021C677.524 285.128 679.674 293.64 680.628 302.321C681.624 311.625 681.371 323.965 681.141 335.152C681.053 339.411 680.969 343.503 680.959 347.196C680.976 357.7 680.909 368.204 680.759 378.707C680.749 380.411 680.763 382.129 680.776 383.854V383.866V383.888C680.809 388.368 680.842 392.888 680.48 397.293C680.197 400.742 679.578 404.302 678.119 407.468C675.154 413.904 669.402 418.716 662.733 421.113C656.179 423.469 648.993 422.838 642.761 419.805C636.177 416.601 631.711 410.429 629.854 403.5C628.329 397.812 628.511 391.332 628.686 385.168C628.737 383.315 628.789 381.49 628.793 379.724C628.8 376.483 628.861 372.415 628.928 367.822V367.812C629.257 345.528 629.768 310.884 625.321 298.258C621.677 287.911 614.37 279.104 604.283 274.375C593.344 269.246 580.732 269.438 568.629 269.622H568.627H568.617C566.141 269.66 563.686 269.697 561.27 269.689C559.308 269.682 556.263 269.622 552.64 269.55H552.619H552.597C539.72 269.294 519.606 268.894 514.983 270.247C508.263 272.213 495.152 282.227 488.581 286.355L393.071 346.795C383.909 352.512 374.642 358.85 365.335 364.244C348.638 373.921 332.371 363.229 317.696 353.583C315.307 352.013 312.961 350.47 310.66 349.048L254.132 313.744C244.342 307.639 231.916 299.399 221.942 294.232C221.568 327.57 221.463 360.91 221.631 394.25L221.593 546.489L221.611 589.734C221.613 591.112 221.637 592.894 221.665 594.867C221.746 600.793 221.85 608.441 221.451 612.026C220.96 616.667 219.156 621.077 216.246 624.752C211.895 630.34 205.422 633.93 198.328 634.688C185.914 636.096 170.726 627.533 169.16 614.519C168.3 607.377 168.398 598.727 168.489 590.694V590.692V590.687L168.491 590.519L168.493 590.349L168.495 590.185C168.523 587.566 168.552 585.016 168.54 582.613L168.491 535.758L168.497 417.107L168.663 304.781L168.59 268.55C168.582 266.701 168.527 264.739 168.471 262.71C168.194 252.772 167.874 241.229 172.729 233.52C176.557 227.484 182.682 223.226 189.723 221.704C195.294 220.408 201.135 220.879 206.42 223.051C210.447 224.686 216.536 228.826 220.539 231.256L245.461 246.355L351.538 311.985C361.989 306.139 375.932 296.75 386.32 290.193C408.583 275.98 430.93 261.896 453.359 247.941C478.545 232.114 491.489 219.537 522.521 218.23C533.062 217.991 544.423 218.072 555.112 218.148H555.13H555.147Z" fill="white"/>
<path d="M426.976 365.612C428.087 365.497 429.202 365.42 430.319 365.381C439.965 365.13 451.551 372.535 461.017 378.585C463.336 380.067 465.527 381.467 467.531 382.654L519.511 413.434L601.627 462.476C617.765 472.141 644.985 486.732 657.606 499.079C672.299 513.391 680.522 532.96 680.407 553.348C680.503 575.117 672.334 593.974 656.797 609.411C644.215 621.89 628.139 630.358 610.642 633.722C600.437 635.739 587.662 635.636 576.318 635.545H576.309H576.292C574.095 635.527 571.951 635.51 569.891 635.509L518.502 635.474L319.631 635.429C306.171 635.487 295.447 631.468 291.073 617.718C289.013 611.083 289.698 603.912 292.98 597.776C300.535 583.97 313.936 584.193 327.26 584.415C328.733 584.44 330.205 584.464 331.669 584.47L364.024 584.576L519.495 584.531L564.165 584.525C567.082 584.524 570.05 584.59 573.034 584.657H573.037C593.22 585.106 614.161 585.572 625.271 565.393C628.568 559.401 629.935 545.605 624.696 540.913C612.807 530.266 596.244 521.569 582.351 513.251C554.68 496.867 527.096 480.338 499.603 463.664C474.37 448.614 449.101 433.588 423.858 418.555C420.657 416.649 417.311 414.732 414.406 412.407C410.174 409.031 407.107 404.441 405.628 399.269C400.818 382.927 411.14 369.783 426.976 365.612Z" fill="white"/>
</svg>
