<svg width="683" height="683" viewBox="0 0 683 683" fill="none" xmlns="http://www.w3.org/2000/svg">
<rect width="683" height="683" rx="64" fill="black"/>
<path d="M469.624 132.148H469.641L472.652 132.169C476.226 132.194 479.73 132.168 483.181 132.142C502.046 132.001 519.32 131.872 537.713 140.161C560.127 150.261 578.3 168.086 587.317 191.021C590.563 199.128 592.687 207.64 593.63 216.321C594.614 225.625 594.364 237.965 594.137 249.152C594.05 253.411 593.967 257.503 593.957 261.196C593.974 271.7 593.908 282.204 593.76 292.707C593.75 294.411 593.763 296.129 593.776 297.854V297.866V297.888C593.809 302.368 593.842 306.888 593.484 311.293C593.204 314.742 592.592 318.302 591.151 321.468C588.22 327.904 582.536 332.716 575.945 335.113C569.468 337.469 562.367 336.838 556.208 333.805C549.701 330.601 545.288 324.429 543.453 317.5C541.946 311.812 542.126 305.332 542.298 299.168C542.349 297.315 542.4 295.49 542.404 293.724C542.411 290.483 542.471 286.415 542.538 281.822V281.812C542.863 259.528 543.368 224.884 538.973 212.258C535.372 201.911 528.151 193.104 518.182 188.375C507.372 183.246 494.908 183.438 482.947 183.622H482.945H482.935C480.488 183.66 478.062 183.697 475.675 183.689C473.736 183.682 470.726 183.622 467.146 183.55H467.125H467.104C454.378 183.294 434.5 182.894 429.932 184.247C423.291 186.213 410.334 196.227 403.84 200.355L309.452 260.795C300.398 266.512 291.24 272.85 282.042 278.244C265.541 287.921 249.465 277.229 234.963 267.583C232.602 266.013 230.283 264.47 228.01 263.048L172.146 227.744C162.471 221.639 150.191 213.399 140.334 208.232C139.964 241.57 139.861 274.91 140.027 308.25L139.989 460.489L140.007 503.734C140.009 505.112 140.033 506.894 140.06 508.867C140.14 514.793 140.243 522.441 139.849 526.026C139.364 530.667 137.581 535.077 134.705 538.752C130.405 544.34 124.008 547.93 116.998 548.688C104.729 550.096 89.72 541.533 88.172 528.519C87.322 521.377 87.419 512.727 87.509 504.694V504.692V504.687L87.511 504.519L87.513 504.349L87.515 504.185C87.543 501.566 87.571 499.016 87.56 496.613L87.511 449.758L87.517 331.107L87.681 218.781L87.609 182.55C87.601 180.701 87.547 178.739 87.491 176.71C87.218 166.772 86.901 155.229 91.699 147.52C95.482 141.484 101.535 137.226 108.494 135.704C113.999 134.408 119.772 134.879 124.994 137.051C128.974 138.686 134.992 142.826 138.948 145.256L163.577 160.355L268.407 225.985C278.735 220.139 292.515 210.75 302.78 204.193C324.782 189.98 346.866 175.896 369.032 161.941C393.922 146.114 406.714 133.537 437.381 132.23C447.798 131.991 459.026 132.072 469.589 132.148H469.607H469.624Z" fill="white"/>
<path d="M342.958 279.612C344.056 279.497 345.158 279.42 346.262 279.381C355.795 279.13 367.245 286.535 376.599 292.585C378.891 294.067 381.056 295.467 383.037 296.654L434.406 327.434L515.557 376.476C531.506 386.141 558.406 400.732 570.878 413.079C585.399 427.391 593.525 446.96 593.411 467.348C593.506 489.117 585.433 507.974 570.079 523.411C557.645 535.89 541.758 544.358 524.466 547.722C514.381 549.739 501.756 549.636 490.546 549.545H490.537H490.52C488.349 549.527 486.23 549.51 484.194 549.509L433.409 549.474L236.875 549.429C223.573 549.487 212.975 545.468 208.652 531.718C206.617 525.083 207.294 517.912 210.537 511.776C218.003 497.97 231.247 498.193 244.414 498.415C245.87 498.44 247.325 498.464 248.771 498.47L280.746 498.576L434.39 498.531L478.535 498.525C481.418 498.524 484.351 498.59 487.3 498.657H487.303C507.249 499.106 527.944 499.572 538.923 479.393C542.182 473.401 543.533 459.605 538.355 454.913C526.606 444.266 510.237 435.569 496.508 427.251C469.162 410.867 441.902 394.338 414.732 377.664C389.796 362.614 364.823 347.588 339.877 332.555C336.714 330.649 333.407 328.732 330.536 326.407C326.354 323.031 323.323 318.441 321.861 313.269C317.108 296.927 327.309 283.783 342.958 279.612Z" fill="white"/>
</svg>
